<mxfile host="Electron" modified="2024-05-21T11:39:23.330Z" agent="Mozilla/5.0 (Windows NT 10.0; Win64; x64) AppleWebKit/537.36 (KHTML, like Gecko) draw.io/24.4.0 Chrome/120.0.6099.109 Electron/28.1.0 Safari/537.36" etag="dksY1XkPtWaN-in35bFY" version="24.4.0" type="device">
  <diagram name="Page-1" id="lHs7m4a3yzea5VdDa6BO">
    <mxGraphModel dx="1070" dy="949" grid="1" gridSize="10" guides="1" tooltips="1" connect="0" arrows="1" fold="1" page="1" pageScale="1" pageWidth="850" pageHeight="1100" math="0" shadow="0">
      <root>
        <mxCell id="0" />
        <mxCell id="1" parent="0" />
        <mxCell id="FaqByfwCf9MBserQ4Ukd-8" style="edgeStyle=orthogonalEdgeStyle;rounded=0;orthogonalLoop=1;jettySize=auto;html=1;entryX=0;entryY=0.5;entryDx=0;entryDy=0;fontSize=15;" edge="1" parent="1" source="FaqByfwCf9MBserQ4Ukd-1" target="FaqByfwCf9MBserQ4Ukd-2">
          <mxGeometry relative="1" as="geometry">
            <Array as="points">
              <mxPoint x="90" y="140" />
            </Array>
          </mxGeometry>
        </mxCell>
        <mxCell id="FaqByfwCf9MBserQ4Ukd-1" value="Analyse" style="rounded=0;whiteSpace=wrap;html=1;fontSize=15;" vertex="1" parent="1">
          <mxGeometry x="30" y="40" width="120" height="60" as="geometry" />
        </mxCell>
        <mxCell id="FaqByfwCf9MBserQ4Ukd-9" style="edgeStyle=orthogonalEdgeStyle;rounded=0;orthogonalLoop=1;jettySize=auto;html=1;exitX=0.5;exitY=1;exitDx=0;exitDy=0;entryX=0;entryY=0.5;entryDx=0;entryDy=0;fontSize=15;" edge="1" parent="1" source="FaqByfwCf9MBserQ4Ukd-2" target="FaqByfwCf9MBserQ4Ukd-3">
          <mxGeometry relative="1" as="geometry" />
        </mxCell>
        <mxCell id="FaqByfwCf9MBserQ4Ukd-2" value="Design" style="rounded=0;whiteSpace=wrap;html=1;fontSize=15;" vertex="1" parent="1">
          <mxGeometry x="170" y="110" width="120" height="60" as="geometry" />
        </mxCell>
        <mxCell id="FaqByfwCf9MBserQ4Ukd-10" style="edgeStyle=orthogonalEdgeStyle;rounded=0;orthogonalLoop=1;jettySize=auto;html=1;exitX=0.5;exitY=1;exitDx=0;exitDy=0;entryX=0;entryY=0.5;entryDx=0;entryDy=0;fontSize=15;" edge="1" parent="1" source="FaqByfwCf9MBserQ4Ukd-3" target="FaqByfwCf9MBserQ4Ukd-4">
          <mxGeometry relative="1" as="geometry" />
        </mxCell>
        <mxCell id="FaqByfwCf9MBserQ4Ukd-3" value="Implementation" style="rounded=0;whiteSpace=wrap;html=1;fontSize=15;" vertex="1" parent="1">
          <mxGeometry x="300" y="180" width="120" height="60" as="geometry" />
        </mxCell>
        <mxCell id="FaqByfwCf9MBserQ4Ukd-11" style="edgeStyle=orthogonalEdgeStyle;rounded=0;orthogonalLoop=1;jettySize=auto;html=1;exitX=0.5;exitY=1;exitDx=0;exitDy=0;entryX=0;entryY=0.5;entryDx=0;entryDy=0;fontSize=15;" edge="1" parent="1" source="FaqByfwCf9MBserQ4Ukd-4" target="FaqByfwCf9MBserQ4Ukd-5">
          <mxGeometry relative="1" as="geometry" />
        </mxCell>
        <mxCell id="FaqByfwCf9MBserQ4Ukd-4" value="Testing" style="rounded=0;whiteSpace=wrap;html=1;fontSize=15;" vertex="1" parent="1">
          <mxGeometry x="425" y="250" width="120" height="60" as="geometry" />
        </mxCell>
        <mxCell id="FaqByfwCf9MBserQ4Ukd-5" value="Maintenence" style="rounded=0;whiteSpace=wrap;html=1;fontSize=15;" vertex="1" parent="1">
          <mxGeometry x="560" y="320" width="120" height="60" as="geometry" />
        </mxCell>
      </root>
    </mxGraphModel>
  </diagram>
</mxfile>
